<svg width="50" height="50" viewBox="0 0 50 50" fill="none" xmlns="http://www.w3.org/2000/svg">
<path fill-rule="evenodd" clip-rule="evenodd" d="M45 34.195V22.024H41V14H26L13 8L10.01 14H5V42H41V34.195H45ZM14 11L12.5 14H20.6L14 11ZM39 34.195V40H7V16H39V22.024H33.023C29.643 22.024 26.902 24.749 26.902 28.11C26.902 31.471 29.643 34.195 33.023 34.195H39ZM39 24.024H33.023C30.751 24.024 28.902 25.857 28.902 28.11C28.902 30.363 30.751 32.195 33.023 32.195H39V24.024ZM43 32.195H41V24.024H43V32.195ZM32.9907 25.9507C31.8987 25.9507 31.0137 26.8357 31.0137 27.9277C31.0137 29.0187 31.8987 29.9037 32.9907 29.9037C34.0807 29.9037 34.9657 29.0187 34.9657 27.9277C34.9657 26.8357 34.0807 25.9507 32.9907 25.9507Z" fill="#28FF52"/>
</svg>
